<svg width="136" height="29" viewBox="0 0 136 29" fill="none" xmlns="http://www.w3.org/2000/svg">
<path d="M49.088 6.2V17.576L39.824 6.2H37.256V23H40.352V11.624L49.616 23H52.184V6.2H49.088ZM61.1977 23.168C65.1817 23.168 68.0377 20.432 68.0377 16.592C68.0377 12.752 65.1817 10.04 61.1977 10.04C57.2617 10.04 54.3817 12.752 54.3817 16.592C54.3817 20.432 57.2617 23.168 61.1977 23.168ZM61.1977 20.6C59.0377 20.6 57.4057 19.04 57.4057 16.592C57.4057 14.144 59.0377 12.584 61.1977 12.584C63.3817 12.584 65.0137 14.144 65.0137 16.592C65.0137 19.04 63.3817 20.6 61.1977 20.6ZM77.0504 10.04C75.2984 10.04 73.8104 10.64 72.8024 11.864V10.184H69.9464V27.656H72.9464V21.44C73.9784 22.616 75.4184 23.168 77.0504 23.168C80.7944 23.168 83.5544 20.576 83.5544 16.592C83.5544 12.632 80.7944 10.04 77.0504 10.04ZM76.7144 20.6C74.5544 20.6 72.8984 19.04 72.8984 16.592C72.8984 14.144 74.5544 12.584 76.7144 12.584C78.8744 12.584 80.5064 14.144 80.5064 16.592C80.5064 19.04 78.8744 20.6 76.7144 20.6ZM85.4396 23H88.4396V5.192H85.4396V23ZM97.1771 23.168C101.161 23.168 104.017 20.432 104.017 16.592C104.017 12.752 101.161 10.04 97.1771 10.04C93.2411 10.04 90.3611 12.752 90.3611 16.592C90.3611 20.432 93.2411 23.168 97.1771 23.168ZM97.1771 20.6C95.0171 20.6 93.3851 19.04 93.3851 16.592C93.3851 14.144 95.0171 12.584 97.1771 12.584C99.3611 12.584 100.993 14.144 100.993 16.592C100.993 19.04 99.3611 20.6 97.1771 20.6ZM122.102 10.04C120.062 10.04 118.334 10.856 117.302 12.176C116.414 10.736 114.854 10.04 112.982 10.04C111.23 10.04 109.742 10.664 108.782 11.816V10.184H105.926V23H108.926V16.496C108.926 13.952 110.27 12.656 112.262 12.656C114.086 12.656 115.142 13.76 115.142 16.04V23H118.142V16.496C118.142 13.952 119.51 12.656 121.478 12.656C123.302 12.656 124.358 13.76 124.358 16.04V23H127.358V15.656C127.358 11.792 125.198 10.04 122.102 10.04ZM131.743 8.072C132.871 8.072 133.663 7.256 133.663 6.2C133.663 5.216 132.847 4.472 131.743 4.472C130.639 4.472 129.823 5.264 129.823 6.272C129.823 7.28 130.639 8.072 131.743 8.072ZM130.231 23H133.231V10.184H130.231V23Z" fill="#272343"/>
<path d="M12.6551 16.7212C11.0577 16.7212 10.1049 14.9409 10.991 13.6118L18.4015 2.49605C19.1931 1.30858 20.938 1.30858 21.7297 2.49605L29.1402 13.6118C30.0262 14.9409 29.0735 16.7212 27.4761 16.7212L20.0656 16.7212L12.6551 16.7212Z" fill="#3361FF"/>
<path d="M21.3449 12.2622C22.9423 12.2622 23.8951 14.0425 23.009 15.3716L15.5985 26.4874C14.8069 27.6748 13.062 27.6748 12.2703 26.4873L4.85983 15.3716C3.97376 14.0425 4.92654 12.2622 6.52393 12.2622L13.9344 12.2622L21.3449 12.2622Z" fill="#6CCAF2"/>
</svg>
